<svg width="167" height="38" viewBox="0 0 213 37" fill="none" xmlns="http://www.w3.org/2000/svg">
<path d="M54.4719 0.217773C62.8869 0.217773 67.1439 4.67877 67.1439 4.67877L65.8259 6.29977C62.6555 3.66364 58.6486 2.24526 54.5259 2.29977C45.7999 2.29977 39.1629 9.13877 39.1629 18.3138C39.1629 27.5398 45.7519 34.8388 54.6739 34.8388C59.1531 34.8617 63.4639 33.1334 66.6869 30.0228L68.0549 31.5438C66.2909 33.2805 64.1998 34.6497 61.9026 35.5721C59.6054 36.4944 57.148 36.9515 54.6729 36.9168C44.3319 36.9168 36.8809 28.6028 36.8809 18.3168C36.8809 8.03077 44.4859 0.217773 54.4719 0.217773Z" fill="#898989"/>
<path d="M75.1992 0.826172H77.3792V17.5002H99.8862V0.826172H102.066V36.3092H99.8862V19.5312H77.3792V36.3092H75.1992V0.826172Z" fill="#898989"/>
<path d="M127.199 0.2178C129.57 0.213702 131.918 0.680223 134.107 1.59032C136.296 2.50042 138.283 3.83598 139.952 5.5196C141.621 7.20322 142.939 9.20141 143.83 11.3983C144.721 13.5952 145.167 15.9472 145.143 18.3178C145.143 28.7608 137.083 36.9178 127.199 36.9178C117.315 36.9178 109.255 28.7568 109.255 18.3178C109.23 15.9472 109.676 13.5952 110.568 11.3983C111.459 9.20141 112.777 7.20322 114.446 5.5196C116.115 3.83598 118.102 2.50042 120.291 1.59032C122.48 0.680223 124.828 0.213702 127.199 0.2178ZM127.199 34.8388C135.867 34.8388 142.862 27.6388 142.862 18.3138C142.909 16.2271 142.539 14.1521 141.773 12.2105C141.007 10.2689 139.861 8.49989 138.402 7.00743C136.942 5.51496 135.2 4.3291 133.276 3.51948C131.352 2.70985 129.286 2.29279 127.199 2.29279C125.112 2.29279 123.045 2.70985 121.122 3.51948C119.198 4.3291 117.455 5.51496 115.996 7.00743C114.537 8.49989 113.391 10.2689 112.625 12.2105C111.859 14.1521 111.489 16.2271 111.536 18.3138C111.536 27.6408 118.536 34.8388 127.199 34.8388Z" fill="#898989"/>
<path d="M167.8 0.2178C170.171 0.213702 172.519 0.680223 174.708 1.59032C176.897 2.50042 178.884 3.83598 180.553 5.5196C182.222 7.20322 183.541 9.20141 184.432 11.3983C185.323 13.5952 185.769 15.9472 185.744 18.3178C185.744 28.7608 177.684 36.9178 167.8 36.9178C157.916 36.9178 149.856 28.7568 149.856 18.3178C149.832 15.9472 150.278 13.5952 151.169 11.3983C152.06 9.20141 153.379 7.20322 155.048 5.5196C156.717 3.83598 158.703 2.50042 160.893 1.59032C163.082 0.680223 165.43 0.213702 167.8 0.2178ZM167.8 34.8388C176.468 34.8388 183.463 27.6388 183.463 18.3138C183.511 16.2271 183.14 14.1521 182.374 12.2105C181.608 10.2689 180.462 8.49989 179.003 7.00743C177.544 5.51496 175.801 4.3291 173.878 3.51948C171.954 2.70985 169.888 2.29279 167.8 2.29279C165.713 2.29279 163.647 2.70985 161.723 3.51948C159.799 4.3291 158.057 5.51496 156.598 7.00743C155.139 8.49989 153.992 10.2689 153.226 12.2105C152.461 14.1521 152.09 16.2271 152.137 18.3138C152.137 27.6408 159.137 34.8388 167.8 34.8388Z" fill="#898989"/>
<path d="M192.939 0.826172H195.119V34.2822H212.049V36.3092H192.939V0.826172Z" fill="#898989"/>
<path d="M33.467 31.037L26.162 23.737L20.709 18.28L33.062 5.928L33.183 5.808L36.561 2.429L34.134 0L33.18 0.954L30.586 3.547L18.281 15.852L7.955 5.526L5.526 3.093L2.429 0L0 2.429L3.1 5.529L8.757 11.185L10.4 12.828L15.853 18.28L3.434 30.7L3.38 30.753L0 34.131L2.429 36.561L5.3 33.692L5.98 33.013L18.28 20.713L26.553 28.985L28.605 31.038L31.037 33.471L34.137 36.571L36.564 34.141L33.47 31.047L33.467 31.037Z" fill="url(#paint0_linear)"/>
<defs>
<linearGradient id="paint0_linear" x1="35.3574" y1="35.3642" x2="1.20008" y2="1.21338" gradientUnits="userSpaceOnUse">
<stop stop-color="#2AF596"/>
<stop offset="1" stop-color="#1AA7D9"/>
</linearGradient>
</defs>
</svg>
